<svg xmlns="http://www.w3.org/2000/svg" xmlns:svg="http://www.w3.org/2000/svg" id="svg4" width="24" height="24" fill="none" version="1.1" viewBox="0 0 24 24"><path id="path2-3" stroke="currentColor" stroke-linecap="round" stroke-linejoin="round" stroke-width="1.5" d="M 4.75,12 C 4.75,7.99594 7.99594,4.75 12,4.75 v 0 c 4.0041,0 7.25,3.24594 7.25,7.25 v 0 c 0,4.0041 -3.2459,7.25 -7.25,7.25 v 0 C 7.99594,19.25 4.75,16.0041 4.75,12 Z" style="stroke:#fff;stroke-opacity:1;fill:none;fill-opacity:1"/><g id="g1558" style="fill:#ffffdc;fill-opacity:1"><path id="path2" fill="currentColor" d="m 13,12 c 0,0.5523 -0.4477,1 -1,1 -0.5523,0 -1,-0.4477 -1,-1 0,-0.5523 0.4477,-1 1,-1 0.5523,0 1,0.4477 1,1 z" style="fill:#ffffdc;fill-opacity:1"/><path id="path4" fill="currentColor" d="m 9.9999996,12 c 0,0.5523 -0.44772,1 -0.9999996,1 -0.55228,0 -1,-0.4477 -1,-1 0,-0.5523 0.44772,-1 1,-1 0.5522796,0 0.9999996,0.4477 0.9999996,1 z" style="fill:#ffffdc;fill-opacity:1"/><path id="path6" fill="currentColor" d="m 16,12 c 0,0.5523 -0.4477,1 -1,1 -0.5523,0 -1,-0.4477 -1,-1 0,-0.5523 0.4477,-1 1,-1 0.5523,0 1,0.4477 1,1 z" style="fill:#ffffdc;fill-opacity:1"/></g></svg>