<svg xmlns="http://www.w3.org/2000/svg" xmlns:svg="http://www.w3.org/2000/svg" id="svg6" width="16" height="16" version="1.1"><g id="g2740"><path style="color:#bebebe;marker:none" id="path2" fill="#666" d="M 8,0 C 3.588,0 0,3.588 0,8 c 0,4.412 3.588,8 8,8 4.412,0 8,-3.588 8,-8 C 16,3.588 12.412,0 8,0 Z m 0,1 c 3.872,0 7,3.128 7,7 0,3.872 -3.128,7 -7,7 C 4.128,15 1,11.872 1,8 1,4.128 4.128,1 8,1 Z" overflow="visible"/><circle style="fill:#666;fill-opacity:1;stroke:none;stroke-width:1.76231" id="path1899" cx="8.071" cy="7.921" r="6"/><path style="fill:#fffff4;stroke:none;stroke-width:1px;stroke-linecap:butt;stroke-linejoin:miter;stroke-opacity:1;fill-opacity:1" id="path2283" d="M 8,1 7.9588443,8.1148334 2.0107567,8.0442152 2.4102593,4.5510775 5.2216641,2.0892424 Z"/></g></svg>